<?xml version="1.0" encoding="UTF-8" standalone="no"?>
<!DOCTYPE svg PUBLIC "-//W3C//DTD SVG 1.1//EN" "http://www.w3.org/Graphics/SVG/1.1/DTD/svg11.dtd">
<svg width="100%" height="100%" viewBox="0 0 1000 1000" version="1.1" xmlns="http://www.w3.org/2000/svg" xmlns:xlink="http://www.w3.org/1999/xlink" xml:space="preserve" xmlns:serif="http://www.serif.com/" style="fill-rule:evenodd;clip-rule:evenodd;stroke-linejoin:round;stroke-miterlimit:2;">
    <rect x="0" y="0" width="1000" height="1000"/>
    <g transform="matrix(-0.908814,0,0,0.908814,1082.467517,-99.719044)">
        <path d="M935.754,551.626C953.334,527.957 965.075,502.341 973.72,475.694C991.726,383.027 948.376,336.15 970.37,270.23C1028.676,334.82 1059.509,428.549 1019.503,597.409C1194.472,810.442 1158.911,920.467 1133.402,1031.786C1117.83,1076.972 1081.323,1072.434 1041.836,1060.819C1032.098,1047.047 1039.29,1033.275 1056.353,1019.503C1059.558,1002.009 1048.308,964.415 1039.603,946.921C1009.373,911.516 993.865,917.433 990.47,980.42L983.77,1012.803C953.807,1035.51 925.89,1033.654 898.905,1020.62C887.628,1001.664 898.636,990.812 920.121,983.77C917.55,928.322 891.81,910.784 856.472,908.955C743.532,935.559 605.811,984.789 568.376,942.454L547.159,1053.003C537.141,1084.006 493.962,1084.217 442.194,1076.452C435.76,1068.897 435.5,1061.903 438.844,1055.236C420.763,1056.41 403.698,1055.552 388.595,1050.769C388.198,1024.978 398.661,1014.389 413.161,1009.453L416.511,971.487C427.305,889.913 357.307,855.68 347.279,807.339C335.368,749.925 360.456,710.414 345.045,627L329.412,579.542C305.305,646.724 273.867,694.008 228.914,704.607C185.21,667.613 154.252,622.12 137.348,567.259C124.758,556.093 116.066,544.926 109.432,533.76C110.435,524.454 118.85,515.149 131.765,505.843L204.347,450.011C215.752,439.834 222.721,428.549 222.214,415.394C224.819,406.089 227.425,396.784 230.03,387.478L301.496,340.579L312.663,331.646C305.504,291.049 312.377,249.038 326.062,214.397L364.028,304.846L377.428,305.963C385.218,261.27 400.16,223.729 419.861,190.947L455.594,323.829L473.46,378.545C525.482,427.022 539.297,502.54 590.709,546.043C692.659,592.697 812.88,576.712 935.754,551.626Z" style="fill:white;"/>
    </g>
</svg>
